<svg xmlns="http://www.w3.org/2000/svg" xmlns:xlink="http://www.w3.org/1999/xlink" width="256" zoomAndPan="magnify" viewBox="0 0 192 187.499995" height="250" preserveAspectRatio="xMidYMid meet" version="1.0"><defs><g/><clipPath id="1f56ead975"><path d="M 0.253906 0 L 191.742188 0 L 191.742188 187 L 0.253906 187 Z M 0.253906 0 " clip-rule="nonzero"/></clipPath><clipPath id="8064a59dbc"><path d="M 11.847656 93 L 114 93 L 114 111 L 11.847656 111 Z M 11.847656 93 " clip-rule="nonzero"/></clipPath><clipPath id="6ec81fba8c"><path d="M 11.847656 54 L 177 54 L 177 86 L 11.847656 86 Z M 11.847656 54 " clip-rule="nonzero"/></clipPath><clipPath id="cae485eba3"><path d="M 95 100 L 180.152344 100 L 180.152344 125 L 95 125 Z M 95 100 " clip-rule="nonzero"/></clipPath><clipPath id="f908b88298"><path d="M 57.761719 58.132812 L 137.902344 58.132812 L 137.902344 129.335938 L 57.761719 129.335938 Z M 57.761719 58.132812 " clip-rule="nonzero"/></clipPath><clipPath id="b44e047ba6"><path d="M 102.128906 60.699219 L 136.988281 121.703125 C 137.890625 123.28125 137.882812 125.222656 136.96875 126.792969 C 136.058594 128.367188 134.375 129.335938 132.558594 129.335938 L 62.972656 129.335938 C 61.15625 129.335938 59.476562 128.367188 58.5625 126.792969 C 57.648438 125.222656 57.644531 123.28125 58.546875 121.703125 L 93.40625 60.699219 C 94.300781 59.132812 95.964844 58.167969 97.765625 58.167969 C 99.570312 58.167969 101.234375 59.132812 102.128906 60.699219 Z M 102.128906 60.699219 " clip-rule="nonzero"/></clipPath><clipPath id="851dba3a38"><path d="M 0.871094 0.167969 L 80.65625 0.167969 L 80.65625 71.335938 L 0.871094 71.335938 Z M 0.871094 0.167969 " clip-rule="nonzero"/></clipPath><clipPath id="55c227eb62"><path d="M 45.128906 2.699219 L 79.988281 63.703125 C 80.890625 65.28125 80.882812 67.222656 79.96875 68.792969 C 79.058594 70.367188 77.375 71.335938 75.558594 71.335938 L 5.972656 71.335938 C 4.15625 71.335938 2.476562 70.367188 1.5625 68.792969 C 0.648438 67.222656 0.644531 65.28125 1.546875 63.703125 L 36.40625 2.699219 C 37.300781 1.132812 38.964844 0.167969 40.765625 0.167969 C 42.570312 0.167969 44.234375 1.132812 45.128906 2.699219 Z M 45.128906 2.699219 " clip-rule="nonzero"/></clipPath><radialGradient gradientTransform="matrix(1, 0, 0, 1, -2.815927, -4.932189)" gradientUnits="userSpaceOnUse" r="53.456431" cx="43.581321" id="001e7af93e" cy="40.683765" fx="43.581321" fy="40.683765"><stop stop-opacity="1" stop-color="rgb(30.877686%, 75.502014%, 35.180664%)" offset="0"/><stop stop-opacity="1" stop-color="rgb(30.726624%, 75.221252%, 35.017395%)" offset="0.0078125"/><stop stop-opacity="1" stop-color="rgb(30.625916%, 75.035095%, 34.907532%)" offset="0.0117188"/><stop stop-opacity="1" stop-color="rgb(30.523682%, 74.847412%, 34.799194%)" offset="0.015625"/><stop stop-opacity="1" stop-color="rgb(30.422974%, 74.661255%, 34.690857%)" offset="0.0195312"/><stop stop-opacity="1" stop-color="rgb(30.322266%, 74.473572%, 34.58252%)" offset="0.0234375"/><stop stop-opacity="1" stop-color="rgb(30.221558%, 74.287415%, 34.472656%)" offset="0.0273438"/><stop stop-opacity="1" stop-color="rgb(30.119324%, 74.099731%, 34.364319%)" offset="0.03125"/><stop stop-opacity="1" stop-color="rgb(30.018616%, 73.913574%, 34.255981%)" offset="0.0351562"/><stop stop-opacity="1" stop-color="rgb(29.917908%, 73.725891%, 34.146118%)" offset="0.0390625"/><stop stop-opacity="1" stop-color="rgb(29.8172%, 73.539734%, 34.037781%)" offset="0.0429688"/><stop stop-opacity="1" stop-color="rgb(29.714966%, 73.352051%, 33.929443%)" offset="0.046875"/><stop stop-opacity="1" stop-color="rgb(29.614258%, 73.165894%, 33.821106%)" offset="0.0507812"/><stop stop-opacity="1" stop-color="rgb(29.51355%, 72.97821%, 33.711243%)" offset="0.0546875"/><stop stop-opacity="1" stop-color="rgb(29.412842%, 72.792053%, 33.602905%)" offset="0.0585938"/><stop stop-opacity="1" stop-color="rgb(29.310608%, 72.60437%, 33.494568%)" offset="0.0625"/><stop stop-opacity="1" stop-color="rgb(29.2099%, 72.418213%, 33.38623%)" offset="0.0664062"/><stop stop-opacity="1" stop-color="rgb(29.109192%, 72.23053%, 33.276367%)" offset="0.0703125"/><stop stop-opacity="1" stop-color="rgb(29.006958%, 72.044373%, 33.16803%)" offset="0.0742188"/><stop stop-opacity="1" stop-color="rgb(28.90625%, 71.856689%, 33.059692%)" offset="0.078125"/><stop stop-opacity="1" stop-color="rgb(28.805542%, 71.670532%, 32.949829%)" offset="0.0820312"/><stop stop-opacity="1" stop-color="rgb(28.704834%, 71.482849%, 32.841492%)" offset="0.0859375"/><stop stop-opacity="1" stop-color="rgb(28.6026%, 71.296692%, 32.733154%)" offset="0.0898438"/><stop stop-opacity="1" stop-color="rgb(28.501892%, 71.109009%, 32.624817%)" offset="0.09375"/><stop stop-opacity="1" stop-color="rgb(28.401184%, 70.922852%, 32.514954%)" offset="0.0976562"/><stop stop-opacity="1" stop-color="rgb(28.300476%, 70.735168%, 32.406616%)" offset="0.101562"/><stop stop-opacity="1" stop-color="rgb(28.198242%, 70.549011%, 32.298279%)" offset="0.105469"/><stop stop-opacity="1" stop-color="rgb(28.097534%, 70.361328%, 32.189941%)" offset="0.109375"/><stop stop-opacity="1" stop-color="rgb(27.996826%, 70.175171%, 32.080078%)" offset="0.113281"/><stop stop-opacity="1" stop-color="rgb(27.896118%, 69.987488%, 31.971741%)" offset="0.117188"/><stop stop-opacity="1" stop-color="rgb(27.793884%, 69.801331%, 31.863403%)" offset="0.121094"/><stop stop-opacity="1" stop-color="rgb(27.693176%, 69.613647%, 31.755066%)" offset="0.125"/><stop stop-opacity="1" stop-color="rgb(27.592468%, 69.42749%, 31.645203%)" offset="0.128906"/><stop stop-opacity="1" stop-color="rgb(27.49176%, 69.239807%, 31.536865%)" offset="0.132812"/><stop stop-opacity="1" stop-color="rgb(27.389526%, 69.05365%, 31.428528%)" offset="0.136719"/><stop stop-opacity="1" stop-color="rgb(27.288818%, 68.865967%, 31.318665%)" offset="0.140625"/><stop stop-opacity="1" stop-color="rgb(27.18811%, 68.67981%, 31.210327%)" offset="0.144531"/><stop stop-opacity="1" stop-color="rgb(27.087402%, 68.492126%, 31.10199%)" offset="0.148438"/><stop stop-opacity="1" stop-color="rgb(26.985168%, 68.305969%, 30.993652%)" offset="0.152344"/><stop stop-opacity="1" stop-color="rgb(26.88446%, 68.118286%, 30.883789%)" offset="0.15625"/><stop stop-opacity="1" stop-color="rgb(26.783752%, 67.932129%, 30.775452%)" offset="0.160156"/><stop stop-opacity="1" stop-color="rgb(26.683044%, 67.744446%, 30.667114%)" offset="0.164062"/><stop stop-opacity="1" stop-color="rgb(26.580811%, 67.558289%, 30.558777%)" offset="0.167969"/><stop stop-opacity="1" stop-color="rgb(26.480103%, 67.370605%, 30.448914%)" offset="0.171875"/><stop stop-opacity="1" stop-color="rgb(26.379395%, 67.184448%, 30.340576%)" offset="0.175781"/><stop stop-opacity="1" stop-color="rgb(26.278687%, 66.996765%, 30.232239%)" offset="0.179688"/><stop stop-opacity="1" stop-color="rgb(26.176453%, 66.810608%, 30.122375%)" offset="0.183594"/><stop stop-opacity="1" stop-color="rgb(26.075745%, 66.622925%, 30.014038%)" offset="0.1875"/><stop stop-opacity="1" stop-color="rgb(25.975037%, 66.436768%, 29.905701%)" offset="0.191406"/><stop stop-opacity="1" stop-color="rgb(25.874329%, 66.249084%, 29.797363%)" offset="0.195312"/><stop stop-opacity="1" stop-color="rgb(25.772095%, 66.062927%, 29.6875%)" offset="0.199219"/><stop stop-opacity="1" stop-color="rgb(25.671387%, 65.875244%, 29.579163%)" offset="0.203125"/><stop stop-opacity="1" stop-color="rgb(25.570679%, 65.689087%, 29.470825%)" offset="0.207031"/><stop stop-opacity="1" stop-color="rgb(25.469971%, 65.501404%, 29.362488%)" offset="0.210938"/><stop stop-opacity="1" stop-color="rgb(25.367737%, 65.315247%, 29.252625%)" offset="0.214844"/><stop stop-opacity="1" stop-color="rgb(25.267029%, 65.127563%, 29.144287%)" offset="0.21875"/><stop stop-opacity="1" stop-color="rgb(25.166321%, 64.941406%, 29.03595%)" offset="0.222656"/><stop stop-opacity="1" stop-color="rgb(25.065613%, 64.753723%, 28.926086%)" offset="0.226562"/><stop stop-opacity="1" stop-color="rgb(24.963379%, 64.567566%, 28.817749%)" offset="0.230469"/><stop stop-opacity="1" stop-color="rgb(24.862671%, 64.379883%, 28.709412%)" offset="0.234375"/><stop stop-opacity="1" stop-color="rgb(24.761963%, 64.193726%, 28.601074%)" offset="0.238281"/><stop stop-opacity="1" stop-color="rgb(24.661255%, 64.006042%, 28.491211%)" offset="0.242188"/><stop stop-opacity="1" stop-color="rgb(24.559021%, 63.819885%, 28.382874%)" offset="0.246094"/><stop stop-opacity="1" stop-color="rgb(24.458313%, 63.632202%, 28.274536%)" offset="0.25"/><stop stop-opacity="1" stop-color="rgb(24.307251%, 63.35144%, 28.111267%)" offset="0.253906"/><stop stop-opacity="1" stop-color="rgb(24.104309%, 62.9776%, 27.893066%)" offset="0.261719"/><stop stop-opacity="1" stop-color="rgb(23.902893%, 62.60376%, 27.676392%)" offset="0.269531"/><stop stop-opacity="1" stop-color="rgb(23.699951%, 62.229919%, 27.458191%)" offset="0.277344"/><stop stop-opacity="1" stop-color="rgb(23.498535%, 61.856079%, 27.241516%)" offset="0.285156"/><stop stop-opacity="1" stop-color="rgb(23.295593%, 61.483765%, 27.023315%)" offset="0.292969"/><stop stop-opacity="1" stop-color="rgb(23.094177%, 61.109924%, 26.806641%)" offset="0.300781"/><stop stop-opacity="1" stop-color="rgb(22.891235%, 60.736084%, 26.58844%)" offset="0.308594"/><stop stop-opacity="1" stop-color="rgb(22.689819%, 60.362244%, 26.371765%)" offset="0.316406"/><stop stop-opacity="1" stop-color="rgb(22.486877%, 59.988403%, 26.153564%)" offset="0.324219"/><stop stop-opacity="1" stop-color="rgb(22.285461%, 59.614563%, 25.93689%)" offset="0.332031"/><stop stop-opacity="1" stop-color="rgb(22.08252%, 59.240723%, 25.718689%)" offset="0.339844"/><stop stop-opacity="1" stop-color="rgb(21.881104%, 58.866882%, 25.502014%)" offset="0.347656"/><stop stop-opacity="1" stop-color="rgb(21.678162%, 58.493042%, 25.283813%)" offset="0.355469"/><stop stop-opacity="1" stop-color="rgb(21.476746%, 58.119202%, 25.065613%)" offset="0.363281"/><stop stop-opacity="1" stop-color="rgb(21.273804%, 57.745361%, 24.848938%)" offset="0.371094"/><stop stop-opacity="1" stop-color="rgb(21.072388%, 57.371521%, 24.630737%)" offset="0.378906"/><stop stop-opacity="1" stop-color="rgb(20.869446%, 56.997681%, 24.414062%)" offset="0.386719"/><stop stop-opacity="1" stop-color="rgb(20.66803%, 56.62384%, 24.195862%)" offset="0.394531"/><stop stop-opacity="1" stop-color="rgb(20.465088%, 56.25%, 23.979187%)" offset="0.402344"/><stop stop-opacity="1" stop-color="rgb(20.263672%, 55.87616%, 23.760986%)" offset="0.410156"/><stop stop-opacity="1" stop-color="rgb(20.06073%, 55.502319%, 23.544312%)" offset="0.417969"/><stop stop-opacity="1" stop-color="rgb(19.857788%, 55.128479%, 23.326111%)" offset="0.425781"/><stop stop-opacity="1" stop-color="rgb(19.656372%, 54.754639%, 23.109436%)" offset="0.433594"/><stop stop-opacity="1" stop-color="rgb(19.45343%, 54.380798%, 22.891235%)" offset="0.441406"/><stop stop-opacity="1" stop-color="rgb(19.252014%, 54.006958%, 22.674561%)" offset="0.449219"/><stop stop-opacity="1" stop-color="rgb(19.049072%, 53.633118%, 22.45636%)" offset="0.457031"/><stop stop-opacity="1" stop-color="rgb(18.847656%, 53.259277%, 22.238159%)" offset="0.464844"/><stop stop-opacity="1" stop-color="rgb(18.644714%, 52.885437%, 22.021484%)" offset="0.472656"/><stop stop-opacity="1" stop-color="rgb(18.443298%, 52.511597%, 21.803284%)" offset="0.480469"/><stop stop-opacity="1" stop-color="rgb(18.240356%, 52.137756%, 21.586609%)" offset="0.488281"/><stop stop-opacity="1" stop-color="rgb(18.03894%, 51.763916%, 21.368408%)" offset="0.496094"/><stop stop-opacity="1" stop-color="rgb(17.887878%, 51.483154%, 21.205139%)" offset="0.503906"/><stop stop-opacity="1" stop-color="rgb(17.785645%, 51.296997%, 21.096802%)" offset="0.507812"/><stop stop-opacity="1" stop-color="rgb(17.684937%, 51.109314%, 20.988464%)" offset="0.511719"/><stop stop-opacity="1" stop-color="rgb(17.584229%, 50.923157%, 20.878601%)" offset="0.515625"/><stop stop-opacity="1" stop-color="rgb(17.483521%, 50.735474%, 20.770264%)" offset="0.519531"/><stop stop-opacity="1" stop-color="rgb(17.381287%, 50.549316%, 20.661926%)" offset="0.523438"/><stop stop-opacity="1" stop-color="rgb(17.280579%, 50.361633%, 20.553589%)" offset="0.527344"/><stop stop-opacity="1" stop-color="rgb(17.179871%, 50.175476%, 20.443726%)" offset="0.53125"/><stop stop-opacity="1" stop-color="rgb(17.079163%, 49.987793%, 20.335388%)" offset="0.535156"/><stop stop-opacity="1" stop-color="rgb(16.976929%, 49.801636%, 20.227051%)" offset="0.539062"/><stop stop-opacity="1" stop-color="rgb(16.876221%, 49.613953%, 20.118713%)" offset="0.542969"/><stop stop-opacity="1" stop-color="rgb(16.775513%, 49.427795%, 20.00885%)" offset="0.546875"/><stop stop-opacity="1" stop-color="rgb(16.674805%, 49.240112%, 19.900513%)" offset="0.550781"/><stop stop-opacity="1" stop-color="rgb(16.572571%, 49.053955%, 19.792175%)" offset="0.554688"/><stop stop-opacity="1" stop-color="rgb(16.471863%, 48.866272%, 19.682312%)" offset="0.558594"/><stop stop-opacity="1" stop-color="rgb(16.371155%, 48.680115%, 19.573975%)" offset="0.5625"/><stop stop-opacity="1" stop-color="rgb(16.270447%, 48.492432%, 19.465637%)" offset="0.566406"/><stop stop-opacity="1" stop-color="rgb(16.168213%, 48.306274%, 19.3573%)" offset="0.570312"/><stop stop-opacity="1" stop-color="rgb(16.067505%, 48.118591%, 19.247437%)" offset="0.574219"/><stop stop-opacity="1" stop-color="rgb(15.966797%, 47.932434%, 19.139099%)" offset="0.578125"/><stop stop-opacity="1" stop-color="rgb(15.866089%, 47.744751%, 19.030762%)" offset="0.582031"/><stop stop-opacity="1" stop-color="rgb(15.763855%, 47.558594%, 18.922424%)" offset="0.585938"/><stop stop-opacity="1" stop-color="rgb(15.663147%, 47.370911%, 18.812561%)" offset="0.589844"/><stop stop-opacity="1" stop-color="rgb(15.562439%, 47.184753%, 18.704224%)" offset="0.59375"/><stop stop-opacity="1" stop-color="rgb(15.461731%, 46.99707%, 18.595886%)" offset="0.597656"/><stop stop-opacity="1" stop-color="rgb(15.359497%, 46.810913%, 18.487549%)" offset="0.601562"/><stop stop-opacity="1" stop-color="rgb(15.258789%, 46.62323%, 18.377686%)" offset="0.605469"/><stop stop-opacity="1" stop-color="rgb(15.158081%, 46.437073%, 18.269348%)" offset="0.609375"/><stop stop-opacity="1" stop-color="rgb(15.057373%, 46.24939%, 18.161011%)" offset="0.613281"/><stop stop-opacity="1" stop-color="rgb(14.955139%, 46.063232%, 18.051147%)" offset="0.617188"/><stop stop-opacity="1" stop-color="rgb(14.854431%, 45.875549%, 17.94281%)" offset="0.621094"/><stop stop-opacity="1" stop-color="rgb(14.753723%, 45.689392%, 17.834473%)" offset="0.625"/><stop stop-opacity="1" stop-color="rgb(14.601135%, 45.40863%, 17.671204%)" offset="0.628906"/><stop stop-opacity="1" stop-color="rgb(14.399719%, 45.03479%, 17.454529%)" offset="0.636719"/><stop stop-opacity="1" stop-color="rgb(14.196777%, 44.66095%, 17.236328%)" offset="0.644531"/><stop stop-opacity="1" stop-color="rgb(13.995361%, 44.287109%, 17.018127%)" offset="0.652344"/><stop stop-opacity="1" stop-color="rgb(13.792419%, 43.913269%, 16.801453%)" offset="0.660156"/><stop stop-opacity="1" stop-color="rgb(13.591003%, 43.539429%, 16.583252%)" offset="0.667969"/><stop stop-opacity="1" stop-color="rgb(13.388062%, 43.165588%, 16.366577%)" offset="0.675781"/><stop stop-opacity="1" stop-color="rgb(13.186646%, 42.791748%, 16.148376%)" offset="0.683594"/><stop stop-opacity="1" stop-color="rgb(12.983704%, 42.417908%, 15.931702%)" offset="0.691406"/><stop stop-opacity="1" stop-color="rgb(12.782288%, 42.044067%, 15.713501%)" offset="0.699219"/><stop stop-opacity="1" stop-color="rgb(12.579346%, 41.670227%, 15.496826%)" offset="0.707031"/><stop stop-opacity="1" stop-color="rgb(12.37793%, 41.296387%, 15.278625%)" offset="0.714844"/><stop stop-opacity="1" stop-color="rgb(12.174988%, 40.922546%, 15.061951%)" offset="0.722656"/><stop stop-opacity="1" stop-color="rgb(11.973572%, 40.548706%, 14.84375%)" offset="0.730469"/><stop stop-opacity="1" stop-color="rgb(11.77063%, 40.174866%, 14.627075%)" offset="0.738281"/><stop stop-opacity="1" stop-color="rgb(11.569214%, 39.801025%, 14.408875%)" offset="0.746094"/><stop stop-opacity="1" stop-color="rgb(11.418152%, 39.520264%, 14.245605%)" offset="0.753906"/><stop stop-opacity="1" stop-color="rgb(11.315918%, 39.334106%, 14.137268%)" offset="0.757812"/><stop stop-opacity="1" stop-color="rgb(11.21521%, 39.146423%, 14.027405%)" offset="0.761719"/><stop stop-opacity="1" stop-color="rgb(11.114502%, 38.960266%, 13.919067%)" offset="0.765625"/><stop stop-opacity="1" stop-color="rgb(11.012268%, 38.772583%, 13.81073%)" offset="0.769531"/><stop stop-opacity="1" stop-color="rgb(10.91156%, 38.586426%, 13.702393%)" offset="0.773438"/><stop stop-opacity="1" stop-color="rgb(10.810852%, 38.398743%, 13.592529%)" offset="0.777344"/><stop stop-opacity="1" stop-color="rgb(10.710144%, 38.212585%, 13.484192%)" offset="0.78125"/><stop stop-opacity="1" stop-color="rgb(10.60791%, 38.026428%, 13.375854%)" offset="0.785156"/><stop stop-opacity="1" stop-color="rgb(10.507202%, 37.838745%, 13.267517%)" offset="0.789062"/><stop stop-opacity="1" stop-color="rgb(10.406494%, 37.652588%, 13.157654%)" offset="0.792969"/><stop stop-opacity="1" stop-color="rgb(10.305786%, 37.464905%, 13.049316%)" offset="0.796875"/><stop stop-opacity="1" stop-color="rgb(10.203552%, 37.278748%, 12.940979%)" offset="0.800781"/><stop stop-opacity="1" stop-color="rgb(10.102844%, 37.091064%, 12.831116%)" offset="0.804688"/><stop stop-opacity="1" stop-color="rgb(10.002136%, 36.904907%, 12.722778%)" offset="0.808594"/><stop stop-opacity="1" stop-color="rgb(9.901428%, 36.717224%, 12.614441%)" offset="0.8125"/><stop stop-opacity="1" stop-color="rgb(9.74884%, 36.436462%, 12.451172%)" offset="0.816406"/><stop stop-opacity="1" stop-color="rgb(9.547424%, 36.062622%, 12.234497%)" offset="0.824219"/><stop stop-opacity="1" stop-color="rgb(9.344482%, 35.688782%, 12.016296%)" offset="0.832031"/><stop stop-opacity="1" stop-color="rgb(9.143066%, 35.314941%, 11.798096%)" offset="0.839844"/><stop stop-opacity="1" stop-color="rgb(8.940125%, 34.941101%, 11.581421%)" offset="0.847656"/><stop stop-opacity="1" stop-color="rgb(8.738708%, 34.567261%, 11.36322%)" offset="0.855469"/><stop stop-opacity="1" stop-color="rgb(8.535767%, 34.19342%, 11.146545%)" offset="0.863281"/><stop stop-opacity="1" stop-color="rgb(8.334351%, 33.81958%, 10.928345%)" offset="0.871094"/><stop stop-opacity="1" stop-color="rgb(8.181763%, 33.540344%, 10.765076%)" offset="0.878906"/><stop stop-opacity="1" stop-color="rgb(8.081055%, 33.352661%, 10.656738%)" offset="0.882812"/><stop stop-opacity="1" stop-color="rgb(7.980347%, 33.166504%, 10.548401%)" offset="0.886719"/><stop stop-opacity="1" stop-color="rgb(7.879639%, 32.978821%, 10.440063%)" offset="0.890625"/><stop stop-opacity="1" stop-color="rgb(7.777405%, 32.792664%, 10.3302%)" offset="0.894531"/><stop stop-opacity="1" stop-color="rgb(7.676697%, 32.60498%, 10.221863%)" offset="0.898438"/><stop stop-opacity="1" stop-color="rgb(7.575989%, 32.418823%, 10.113525%)" offset="0.902344"/><stop stop-opacity="1" stop-color="rgb(7.475281%, 32.23114%, 10.003662%)" offset="0.90625"/><stop stop-opacity="1" stop-color="rgb(7.322693%, 31.950378%, 9.841919%)" offset="0.910156"/><stop stop-opacity="1" stop-color="rgb(7.121277%, 31.576538%, 9.623718%)" offset="0.917969"/><stop stop-opacity="1" stop-color="rgb(6.918335%, 31.202698%, 9.407043%)" offset="0.925781"/><stop stop-opacity="1" stop-color="rgb(6.716919%, 30.828857%, 9.188843%)" offset="0.933594"/><stop stop-opacity="1" stop-color="rgb(6.564331%, 30.549622%, 9.025574%)" offset="0.941406"/><stop stop-opacity="1" stop-color="rgb(6.463623%, 30.361938%, 8.917236%)" offset="0.945312"/><stop stop-opacity="1" stop-color="rgb(6.362915%, 30.175781%, 8.807373%)" offset="0.949219"/><stop stop-opacity="1" stop-color="rgb(6.262207%, 29.988098%, 8.699036%)" offset="0.953125"/><stop stop-opacity="1" stop-color="rgb(6.109619%, 29.707336%, 8.535767%)" offset="0.957031"/><stop stop-opacity="1" stop-color="rgb(5.908203%, 29.333496%, 8.319092%)" offset="0.964844"/><stop stop-opacity="1" stop-color="rgb(5.755615%, 29.05426%, 8.155823%)" offset="0.972656"/><stop stop-opacity="1" stop-color="rgb(5.654907%, 28.866577%, 8.047485%)" offset="0.976562"/><stop stop-opacity="1" stop-color="rgb(5.503845%, 28.585815%, 7.884216%)" offset="0.980469"/><stop stop-opacity="1" stop-color="rgb(5.351257%, 28.30658%, 7.720947%)" offset="0.988281"/><stop stop-opacity="1" stop-color="rgb(5.200195%, 28.025818%, 7.557678%)" offset="0.992188"/><stop stop-opacity="1" stop-color="rgb(5.099487%, 27.839661%, 7.449341%)" offset="1"/></radialGradient><clipPath id="2cca127714"><rect x="0" width="81" y="0" height="72"/></clipPath><clipPath id="528f29132e"><path d="M 1 17 L 8 17 L 8 24.78125 L 1 24.78125 Z M 1 17 " clip-rule="nonzero"/></clipPath><clipPath id="6a35fded03"><path d="M 8 17 L 13 17 L 13 24.78125 L 8 24.78125 Z M 8 17 " clip-rule="nonzero"/></clipPath><clipPath id="a6966eaf06"><path d="M 14 17 L 15 17 L 15 24.78125 L 14 24.78125 Z M 14 17 " clip-rule="nonzero"/></clipPath><clipPath id="1ea9a91f7a"><path d="M 16 17 L 23 17 L 23 24.78125 L 16 24.78125 Z M 16 17 " clip-rule="nonzero"/></clipPath><clipPath id="1df3a2b4c4"><path d="M 23 17 L 25 17 L 25 24.78125 L 23 24.78125 Z M 23 17 " clip-rule="nonzero"/></clipPath><clipPath id="709bc72386"><path d="M 25 17 L 31 17 L 31 24.78125 L 25 24.78125 Z M 25 17 " clip-rule="nonzero"/></clipPath><clipPath id="f323948be8"><path d="M 31 17 L 39 17 L 39 24.78125 L 31 24.78125 Z M 31 17 " clip-rule="nonzero"/></clipPath><clipPath id="e6fbbfa2b9"><path d="M 39 17 L 44.695312 17 L 44.695312 24.78125 L 39 24.78125 Z M 39 17 " clip-rule="nonzero"/></clipPath><clipPath id="c0ba7a783b"><rect x="0" width="45" y="0" height="25"/></clipPath></defs><g clip-path="url(#1f56ead975)"><path fill="#ffffff" d="M 0.253906 0 L 191.746094 0 L 191.746094 187 L 0.253906 187 Z M 0.253906 0 " fill-opacity="1" fill-rule="nonzero"/><path fill="#042107" d="M 0.253906 0 L 191.746094 0 L 191.746094 187 L 0.253906 187 Z M 0.253906 0 " fill-opacity="1" fill-rule="nonzero"/></g><g clip-path="url(#8064a59dbc)"><path fill="#4aaa54" d="M 56.835938 95.796875 L 70.25 109.210938 L 109.792969 109.210938 C 110.046875 109.96875 110.742188 110.476562 111.566406 110.476562 C 112.386719 110.476562 113.460938 109.652344 113.460938 108.578125 C 113.460938 107.5 112.640625 106.679688 111.566406 106.679688 C 110.488281 106.679688 110.046875 107.25 109.792969 107.945312 L 70.753906 107.945312 L 57.339844 94.53125 L 15.519531 94.53125 C 15.265625 93.769531 14.570312 93.265625 13.746094 93.265625 C 12.925781 93.265625 11.847656 94.085938 11.847656 95.164062 C 11.847656 96.238281 12.671875 97.0625 13.746094 97.0625 C 14.824219 97.0625 15.265625 96.492188 15.519531 95.796875 Z M 110.867188 108.640625 C 110.867188 108.261719 111.183594 107.945312 111.566406 107.945312 C 111.945312 107.945312 112.261719 108.261719 112.261719 108.640625 C 112.261719 109.019531 111.945312 109.335938 111.566406 109.335938 C 111.183594 109.335938 110.867188 109.019531 110.867188 108.640625 Z M 14.445312 95.226562 C 14.445312 95.605469 14.128906 95.921875 13.746094 95.921875 C 13.367188 95.921875 13.050781 95.605469 13.050781 95.226562 C 13.050781 94.847656 13.367188 94.53125 13.746094 94.53125 C 14.128906 94.53125 14.445312 94.847656 14.445312 95.226562 Z M 14.445312 95.226562 " fill-opacity="1" fill-rule="nonzero"/></g><path fill="#4aaa54" d="M 152.945312 51.757812 L 168.003906 36.699219 C 168.253906 36.828125 168.507812 36.890625 168.824219 36.890625 C 169.835938 36.890625 170.722656 36.066406 170.722656 34.992188 C 170.722656 33.917969 169.902344 33.09375 168.824219 33.09375 C 167.75 33.09375 166.925781 33.917969 166.925781 34.992188 C 166.925781 36.066406 166.988281 35.625 167.179688 35.878906 L 152.5 50.558594 L 133.140625 50.558594 L 111.058594 72.640625 C 110.867188 72.640625 110.742188 72.511719 110.550781 72.511719 C 109.730469 72.511719 109.097656 73.144531 109.097656 73.96875 C 109.097656 74.789062 109.730469 75.421875 110.550781 75.421875 C 111.375 75.421875 112.007812 74.789062 112.007812 73.96875 C 112.007812 73.144531 112.007812 73.585938 111.882812 73.460938 L 133.644531 51.695312 L 153.007812 51.695312 Z M 168.066406 34.992188 C 168.066406 34.613281 168.382812 34.296875 168.761719 34.296875 C 169.140625 34.296875 169.457031 34.613281 169.457031 34.992188 C 169.457031 35.371094 169.140625 35.6875 168.761719 35.6875 C 168.382812 35.6875 168.066406 35.371094 168.066406 34.992188 Z M 168.066406 34.992188 " fill-opacity="1" fill-rule="nonzero"/><path fill="#4aaa54" d="M 114.160156 120.976562 C 113.273438 120.976562 112.578125 121.546875 112.324219 122.371094 L 86.507812 122.371094 L 73.097656 135.785156 L 33.234375 135.785156 L 19.503906 122.054688 C 19.503906 121.863281 19.632812 121.738281 19.632812 121.546875 C 19.632812 120.726562 19 120.09375 18.175781 120.09375 C 17.355469 120.09375 16.722656 120.726562 16.722656 121.546875 C 16.722656 122.371094 17.355469 123.003906 18.175781 123.003906 C 19 123.003906 18.554688 123.003906 18.683594 122.875 L 32.792969 136.984375 L 73.601562 136.984375 L 87.015625 123.570312 L 112.386719 123.570312 C 112.640625 124.269531 113.335938 124.773438 114.160156 124.773438 C 114.980469 124.773438 116.058594 123.953125 116.058594 122.875 C 116.058594 121.800781 115.234375 120.976562 114.160156 120.976562 Z M 114.855469 122.8125 C 114.855469 123.191406 114.539062 123.507812 114.160156 123.507812 C 113.777344 123.507812 113.460938 123.191406 113.460938 122.8125 C 113.460938 122.433594 113.777344 122.117188 114.160156 122.117188 C 114.539062 122.117188 114.855469 122.433594 114.855469 122.8125 Z M 114.855469 122.8125 " fill-opacity="1" fill-rule="nonzero"/><g clip-path="url(#6ec81fba8c)"><path fill="#4aaa54" d="M 13.746094 58.53125 C 14.570312 58.53125 15.265625 57.960938 15.519531 57.265625 L 49.054688 57.265625 L 77.523438 85.734375 L 115.488281 85.734375 L 132.253906 68.96875 L 172.558594 68.96875 C 172.8125 69.664062 173.507812 70.171875 174.328125 70.171875 C 175.152344 70.171875 176.226562 69.347656 176.226562 68.273438 C 176.226562 67.199219 175.40625 66.375 174.328125 66.375 C 173.253906 66.375 172.746094 66.945312 172.496094 67.765625 L 131.75 67.765625 L 114.980469 84.535156 L 78.03125 84.535156 L 49.558594 56.0625 L 15.519531 56.0625 C 15.265625 55.300781 14.570312 54.796875 13.746094 54.796875 C 12.925781 54.796875 11.847656 55.617188 11.847656 56.695312 C 11.847656 57.769531 12.671875 58.59375 13.746094 58.59375 Z M 13.050781 56.632812 C 13.050781 56.25 13.367188 55.933594 13.746094 55.933594 C 14.128906 55.933594 14.445312 56.25 14.445312 56.632812 C 14.445312 57.011719 14.128906 57.328125 13.746094 57.328125 C 13.367188 57.328125 13.050781 57.011719 13.050781 56.632812 Z M 173.632812 68.273438 C 173.632812 67.894531 173.949219 67.578125 174.328125 67.578125 C 174.710938 67.578125 175.027344 67.894531 175.027344 68.273438 C 175.027344 68.652344 174.710938 68.96875 174.328125 68.96875 C 173.949219 68.96875 173.632812 68.652344 173.632812 68.273438 Z M 173.632812 68.273438 " fill-opacity="1" fill-rule="nonzero"/></g><g clip-path="url(#cae485eba3)"><path fill="#4aaa54" d="M 178.253906 121.042969 C 177.429688 121.042969 176.734375 121.609375 176.480469 122.304688 L 147.058594 122.304688 L 126.054688 101.300781 L 98.59375 101.300781 C 98.339844 100.792969 97.835938 100.414062 97.265625 100.414062 C 96.695312 100.414062 95.808594 101.046875 95.808594 101.871094 C 95.808594 102.691406 96.441406 103.324219 97.265625 103.324219 C 98.089844 103.324219 98.339844 102.945312 98.59375 102.441406 L 125.546875 102.441406 L 146.554688 123.445312 L 176.480469 123.445312 C 176.734375 124.203125 177.429688 124.710938 178.253906 124.710938 C 179.074219 124.710938 180.152344 123.886719 180.152344 122.8125 C 180.152344 121.738281 179.328125 120.914062 178.253906 120.914062 Z M 178.949219 122.9375 C 178.949219 123.320312 178.632812 123.636719 178.253906 123.636719 C 177.871094 123.636719 177.554688 123.320312 177.554688 122.9375 C 177.554688 122.558594 177.871094 122.242188 178.253906 122.242188 C 178.632812 122.242188 178.949219 122.558594 178.949219 122.9375 Z M 178.949219 122.9375 " fill-opacity="1" fill-rule="nonzero"/></g><path fill="#4aaa54" d="M 176.671875 136.226562 C 175.847656 136.226562 175.152344 136.796875 174.898438 137.492188 L 139.46875 137.492188 L 117.511719 115.535156 L 48.738281 115.535156 C 48.484375 114.777344 47.789062 114.269531 46.964844 114.269531 C 46.140625 114.269531 45.066406 115.09375 45.066406 116.167969 C 45.066406 117.246094 45.890625 118.066406 46.964844 118.066406 C 48.039062 118.066406 48.484375 117.496094 48.738281 116.800781 L 117.007812 116.800781 L 138.960938 138.757812 L 174.898438 138.757812 C 175.152344 139.515625 175.847656 140.023438 176.671875 140.023438 C 177.492188 140.023438 178.570312 139.199219 178.570312 138.125 C 178.570312 137.046875 177.746094 136.226562 176.671875 136.226562 Z M 177.367188 138.125 C 177.367188 138.503906 177.050781 138.820312 176.671875 138.820312 C 176.292969 138.820312 175.976562 138.503906 175.976562 138.125 C 175.976562 137.746094 176.292969 137.429688 176.671875 137.429688 C 177.050781 137.429688 177.367188 137.746094 177.367188 138.125 Z M 47.597656 116.167969 C 47.597656 116.550781 47.28125 116.867188 46.902344 116.867188 C 46.523438 116.867188 46.207031 116.550781 46.207031 116.167969 C 46.207031 115.789062 46.523438 115.472656 46.902344 115.472656 C 47.28125 115.472656 47.597656 115.789062 47.597656 116.167969 Z M 47.597656 116.167969 " fill-opacity="1" fill-rule="nonzero"/><path fill="#4aaa54" d="M 145.730469 73.839844 C 144.910156 73.839844 144.277344 74.472656 144.277344 75.296875 C 144.277344 76.117188 144.910156 76.75 145.730469 76.75 C 146.554688 76.75 145.792969 76.75 145.859375 76.75 L 155.347656 86.242188 L 166.988281 86.242188 C 167.242188 87 167.9375 87.507812 168.761719 87.507812 C 169.585938 87.507812 170.660156 86.683594 170.660156 85.609375 C 170.660156 84.535156 169.835938 83.710938 168.761719 83.710938 C 167.6875 83.710938 167.242188 84.28125 166.988281 84.976562 L 155.855469 84.976562 L 146.933594 76.054688 C 147.125 75.800781 147.1875 75.550781 147.1875 75.234375 C 147.1875 74.410156 146.554688 73.777344 145.730469 73.777344 Z M 168.066406 85.671875 C 168.066406 85.292969 168.382812 84.976562 168.761719 84.976562 C 169.140625 84.976562 169.457031 85.292969 169.457031 85.671875 C 169.457031 86.050781 169.140625 86.367188 168.761719 86.367188 C 168.382812 86.367188 168.066406 86.050781 168.066406 85.671875 Z M 168.066406 85.671875 " fill-opacity="1" fill-rule="nonzero"/><g clip-path="url(#f908b88298)"><g clip-path="url(#b44e047ba6)"><g transform="matrix(1, 0, 0, 1, 57, 58)"><g clip-path="url(#2cca127714)"><g clip-path="url(#851dba3a38)"><g clip-path="url(#55c227eb62)"><path fill="url(#001e7af93e)" d="M 0.871094 0.167969 L 0.871094 71.335938 L 80.65625 71.335938 L 80.65625 0.167969 Z M 0.871094 0.167969 " fill-rule="nonzero"/></g></g></g></g></g></g><g transform="matrix(1, 0, 0, 1, 75, 87)"><g clip-path="url(#c0ba7a783b)"><g fill="#0d4713" fill-opacity="1"><g transform="translate(5.544878, 10.222342)"><g><path d="M 5.03125 -7.171875 L 6.015625 -7.171875 L 6.015625 -2.765625 C 6.015625 -1.835938 5.785156 -1.140625 5.328125 -0.671875 C 4.953125 -0.296875 4.421875 -0.0664062 3.734375 0.015625 L 3.734375 -0.90625 C 4.117188 -0.96875 4.410156 -1.117188 4.609375 -1.359375 C 4.890625 -1.691406 5.03125 -2.195312 5.03125 -2.875 Z M 0.515625 -7.171875 L 1.5 -7.171875 L 1.5 -2.875 C 1.5 -2.21875 1.632812 -1.710938 1.90625 -1.359375 C 2.113281 -1.128906 2.394531 -0.976562 2.75 -0.90625 L 2.75 0 C 2.09375 -0.0820312 1.578125 -0.304688 1.203125 -0.671875 C 0.742188 -1.148438 0.515625 -1.847656 0.515625 -2.765625 Z M 0.515625 -7.171875 "/></g></g></g><g fill="#0d4713" fill-opacity="1"><g transform="translate(12.064825, 10.222342)"><g><path d="M 0.515625 -7.1875 L 2.71875 -7.1875 C 3.519531 -7.1875 4.125 -7.003906 4.53125 -6.640625 C 4.945312 -6.285156 5.15625 -5.753906 5.15625 -5.046875 C 5.15625 -4.335938 4.945312 -3.800781 4.53125 -3.4375 C 4.113281 -3.070312 3.507812 -2.890625 2.71875 -2.890625 L 0.515625 -2.890625 Z M 1.484375 -6.328125 L 1.484375 -3.75 L 2.71875 -3.75 C 3.15625 -3.75 3.5 -3.867188 3.75 -4.109375 C 4 -4.359375 4.125 -4.671875 4.125 -5.046875 C 4.125 -5.441406 4 -5.753906 3.75 -5.984375 C 3.632812 -6.109375 3.488281 -6.195312 3.3125 -6.25 C 3.132812 -6.300781 2.9375 -6.328125 2.71875 -6.328125 Z M 0.515625 -1.90625 L 1.484375 -1.90625 L 1.484375 0 L 0.515625 0 Z M 0.515625 -1.90625 "/></g></g></g><g fill="#0d4713" fill-opacity="1"><g transform="translate(17.724999, 10.222342)"><g><path d="M 3.0625 -5.375 L 4.046875 -5.375 L 4.046875 0 L 3.0625 0 Z M 0.515625 -7.1875 L 6.59375 -7.1875 L 6.59375 -6.359375 L 0.515625 -6.359375 Z M 0.515625 -7.1875 "/></g></g></g><g fill="#0d4713" fill-opacity="1"><g transform="translate(24.828364, 10.222342)"><g><path d="M 0.515625 -3.3125 L 1.5 -3.3125 L 1.5 0 L 0.515625 0 Z M 0.515625 -7.171875 L 1.5 -7.171875 L 1.5 -4.28125 L 0.515625 -4.28125 Z M 0.515625 -7.171875 "/></g></g></g><g fill="#0d4713" fill-opacity="1"><g transform="translate(26.824266, 10.222342)"><g><path d="M 5.53125 -7.203125 L 7.09375 -7.203125 L 7.09375 -0.015625 L 6.140625 -0.015625 L 6.140625 -6.328125 L 5.390625 -4.3125 L 4.453125 -4.3125 Z M 0.515625 -7.203125 L 2.0625 -7.203125 L 3.15625 -4.3125 L 2.203125 -4.3125 L 1.453125 -6.328125 L 1.453125 -0.015625 L 0.515625 -0.015625 Z M 2.578125 -3.328125 L 3.515625 -3.328125 L 3.796875 -2.671875 L 4.078125 -3.328125 L 5.015625 -3.328125 L 4.28125 -1.609375 L 3.3125 -1.609375 Z M 2.578125 -3.328125 "/></g></g></g><g fill="#0d4713" fill-opacity="1"><g transform="translate(34.41893, 10.222342)"><g><path d="M 0.515625 -7.1875 L 5.0625 -7.1875 L 5.0625 -6.375 L 1.484375 -6.375 L 1.484375 -4.25 L 5.0625 -4.25 L 5.0625 -3.421875 L 1.484375 -3.421875 L 1.484375 -1.796875 L 0.515625 -1.796875 Z M 0.515625 -0.8125 L 5.0625 -0.8125 L 5.0625 0 L 0.515625 0 Z M 0.515625 -0.8125 "/></g></g></g><g clip-path="url(#528f29132e)"><g fill="#0d4713" fill-opacity="1"><g transform="translate(1.005713, 24.527943)"><g><path d="M 0.515625 -3.28125 L 1.546875 -3.28125 C 1.585938 -2.664062 1.832031 -2.113281 2.28125 -1.625 C 2.507812 -1.382812 2.765625 -1.207031 3.046875 -1.09375 C 3.328125 -0.988281 3.671875 -0.9375 4.078125 -0.9375 L 6.3125 -0.953125 L 6.328125 -0.015625 L 4.015625 0 C 2.929688 0 2.070312 -0.316406 1.4375 -0.953125 C 0.882812 -1.546875 0.578125 -2.320312 0.515625 -3.28125 Z M 4.015625 -7.1875 L 6.328125 -7.1875 L 6.3125 -6.234375 L 4.109375 -6.25 C 3.910156 -6.25 3.734375 -6.234375 3.578125 -6.203125 C 3.421875 -6.179688 3.269531 -6.140625 3.125 -6.078125 C 3 -6.023438 2.867188 -5.957031 2.734375 -5.875 C 2.609375 -5.800781 2.484375 -5.707031 2.359375 -5.59375 C 1.960938 -5.144531 1.707031 -4.671875 1.59375 -4.171875 L 0.53125 -4.171875 C 0.632812 -5.015625 0.9375 -5.691406 1.4375 -6.203125 C 2.09375 -6.859375 2.953125 -7.1875 4.015625 -7.1875 Z M 4.015625 -7.1875 "/></g></g></g></g><g clip-path="url(#6a35fded03)"><g fill="#0d4713" fill-opacity="1"><g transform="translate(7.832722, 24.527943)"><g><path d="M 0.515625 -7.1875 L 2.71875 -7.1875 C 3.519531 -7.1875 4.125 -7.003906 4.53125 -6.640625 C 4.945312 -6.285156 5.15625 -5.753906 5.15625 -5.046875 C 5.15625 -4.335938 4.945312 -3.800781 4.53125 -3.4375 C 4.320312 -3.25 4.046875 -3.109375 3.703125 -3.015625 L 5.109375 -0.015625 L 4.015625 -0.015625 L 2.6875 -2.890625 L 0.515625 -2.890625 Z M 1.484375 -6.328125 L 1.484375 -3.75 L 2.71875 -3.75 C 3.15625 -3.75 3.5 -3.867188 3.75 -4.109375 C 4 -4.359375 4.125 -4.671875 4.125 -5.046875 C 4.125 -5.441406 4 -5.753906 3.75 -5.984375 C 3.632812 -6.109375 3.488281 -6.195312 3.3125 -6.25 C 3.132812 -6.300781 2.9375 -6.328125 2.71875 -6.328125 Z M 0.515625 -1.90625 L 1.484375 -1.90625 L 1.484375 0 L 0.515625 0 Z M 0.515625 -1.90625 "/></g></g></g></g><g clip-path="url(#a6966eaf06)"><g fill="#0d4713" fill-opacity="1"><g transform="translate(13.492896, 24.527943)"><g><path d="M 0.515625 -3.3125 L 1.5 -3.3125 L 1.5 0 L 0.515625 0 Z M 0.515625 -7.171875 L 1.5 -7.171875 L 1.5 -4.28125 L 0.515625 -4.28125 Z M 0.515625 -7.171875 "/></g></g></g></g><g clip-path="url(#1ea9a91f7a)"><g fill="#0d4713" fill-opacity="1"><g transform="translate(15.488797, 24.527943)"><g><path d="M 3.0625 -5.375 L 4.046875 -5.375 L 4.046875 0 L 3.0625 0 Z M 0.515625 -7.1875 L 6.59375 -7.1875 L 6.59375 -6.359375 L 0.515625 -6.359375 Z M 0.515625 -7.1875 "/></g></g></g></g><g clip-path="url(#1df3a2b4c4)"><g fill="#0d4713" fill-opacity="1"><g transform="translate(22.592162, 24.527943)"><g><path d="M 0.515625 -3.3125 L 1.5 -3.3125 L 1.5 0 L 0.515625 0 Z M 0.515625 -7.171875 L 1.5 -7.171875 L 1.5 -4.28125 L 0.515625 -4.28125 Z M 0.515625 -7.171875 "/></g></g></g></g><g clip-path="url(#709bc72386)"><g fill="#0d4713" fill-opacity="1"><g transform="translate(24.588064, 24.527943)"><g><path d="M 0.515625 -3.28125 L 1.546875 -3.28125 C 1.585938 -2.664062 1.832031 -2.113281 2.28125 -1.625 C 2.507812 -1.382812 2.765625 -1.207031 3.046875 -1.09375 C 3.328125 -0.988281 3.671875 -0.9375 4.078125 -0.9375 L 6.3125 -0.953125 L 6.328125 -0.015625 L 4.015625 0 C 2.929688 0 2.070312 -0.316406 1.4375 -0.953125 C 0.882812 -1.546875 0.578125 -2.320312 0.515625 -3.28125 Z M 4.015625 -7.1875 L 6.328125 -7.1875 L 6.3125 -6.234375 L 4.109375 -6.25 C 3.910156 -6.25 3.734375 -6.234375 3.578125 -6.203125 C 3.421875 -6.179688 3.269531 -6.140625 3.125 -6.078125 C 3 -6.023438 2.867188 -5.957031 2.734375 -5.875 C 2.609375 -5.800781 2.484375 -5.707031 2.359375 -5.59375 C 1.960938 -5.144531 1.707031 -4.671875 1.59375 -4.171875 L 0.53125 -4.171875 C 0.632812 -5.015625 0.9375 -5.691406 1.4375 -6.203125 C 2.09375 -6.859375 2.953125 -7.1875 4.015625 -7.1875 Z M 4.015625 -7.1875 "/></g></g></g></g><g clip-path="url(#f323948be8)"><g fill="#0d4713" fill-opacity="1"><g transform="translate(31.415073, 24.527943)"><g><path d="M 1.53125 -2.65625 L 6.09375 -2.65625 L 7.109375 0 L 6.09375 0 L 5.4375 -1.84375 L 2.1875 -1.84375 L 1.53125 0 L 0.515625 0 Z M 3.25 -7.1875 L 4.359375 -7.1875 L 5.765625 -3.484375 L 4.828125 -3.484375 L 3.8125 -6.234375 L 2.796875 -3.484375 L 1.84375 -3.484375 Z M 3.25 -7.1875 "/></g></g></g></g><g clip-path="url(#e6fbbfa2b9)"><g fill="#0d4713" fill-opacity="1"><g transform="translate(39.030206, 24.527943)"><g><path d="M 0.515625 -7.171875 L 1.484375 -7.171875 L 1.484375 0.015625 L 0.515625 0.015625 Z M 2.46875 -0.796875 L 4.984375 -0.796875 L 4.984375 0.015625 L 2.46875 0.015625 Z M 2.46875 -0.796875 "/></g></g></g></g></g></g></svg>